<?xml version="1.0" encoding="utf-8"?>
<!DOCTYPE svg PUBLIC "-//W3C//DTD SVG 1.0//EN" "http://www.w3.org/TR/2001/REC-SVG-20010904/DTD/svg10.dtd">
<svg version="1.0" xmlns="http://www.w3.org/2000/svg" width="50px" height="50px" viewBox="0 0 50 50" preserveAspectRatio="xMidYMid meet">
 <g fill="#ffffff">
  <path d="M0 25 l0 -25 25 0 25 0 0 25 0 25 -25 0 -25 0 0 -25z m27.51 21.68 c1.63 -0.26 2.25 -0.47 3.32 -1.12 0.18 -0.11 0.34 -0.21 0.36 -0.21 0.09 0 1.26 -0.95 1.74 -1.42 0.67 -0.65 1.17 -1.22 2.39 -2.73 2.43 -3.01 4.23 -4.85 6.74 -6.86 0.68 -0.54 2.02 -1.54 2.39 -1.78 0.11 -0.07 0.27 -0.19 0.37 -0.26 0.25 -0.19 2.59 -1.70 2.63 -1.70 0.02 0 0.07 -0.03 0.10 -0.06 0.04 -0.05 -0.10 -0.12 -0.77 -0.34 -1.74 -0.58 -3.27 -1.26 -4.65 -2.10 -0.85 -0.51 -1.15 -0.72 -3.02 -2.06 -1.48 -1.06 -2.43 -1.69 -3.19 -2.13 -0.69 -0.40 -1.36 -0.71 -1.64 -0.78 -0.49 -0.11 -1.46 -0.17 -2.32 -0.14 -1.44 0.05 -1.87 0.14 -2.47 0.53 -0.46 0.29 -1.51 1.38 -2.07 2.13 -0.45 0.62 -0.49 0.64 -0.65 0.64 l-0.17 0 0.03 -1.38 c0.04 -1.86 0.11 -2.99 0.20 -3.29 0.21 -0.72 1.23 -1.87 2.34 -2.62 l0.40 -0.27 0.78 -0.03 c1.07 -0.04 2.76 -0.04 3.49 0.01 0.52 0.03 0.68 0.07 1.05 0.21 1.09 0.42 2.27 1.06 3.20 1.73 0.88 0.64 1.49 1.20 2.98 2.70 1.86 1.87 2.43 2.38 3.44 3.06 0.53 0.35 2.02 1.21 2.05 1.18 0.03 -0.03 -2.52 -4.62 -4.22 -7.61 -1.17 -2.06 -1.97 -3.35 -3.01 -4.92 l-0.96 -1.44 0.03 -0.44 c0.09 -1.46 0.66 -3.02 1.67 -4.58 0.21 -0.32 0.22 -0.33 0.41 -0.33 0.23 0 0.22 -0.03 0.30 0.88 0.14 1.56 0 3.43 -0.35 4.80 l-0.10 0.39 0.15 0.20 c0.08 0.11 0.33 0.45 0.55 0.75 0.33 0.45 0.41 0.54 0.43 0.46 0.04 -0.13 0.32 -1.80 0.41 -2.53 0.27 -2.09 0.28 -3.76 0.06 -5.25 -0.12 -0.82 -0.41 -2.08 -0.54 -2.40 -0.11 -0.27 -0.35 -0.52 -0.53 -0.55 -0.37 -0.07 -1.85 0.65 -3.20 1.55 -1.37 0.91 -2.61 1.96 -4.06 3.41 -0.89 0.89 -1.03 1.02 -1.17 1.02 -0.08 0 -0.47 -0.09 -0.87 -0.19 -2.30 -0.63 -4.20 -0.88 -6.43 -0.88 -2.46 0 -4.40 0.25 -6.77 0.88 -0.40 0.10 -0.80 0.19 -0.90 0.19 -0.17 0 -0.25 -0.06 -1.33 -1.14 -1.47 -1.45 -2.61 -2.40 -3.96 -3.31 -0.84 -0.56 -2.02 -1.20 -2.68 -1.45 -0.66 -0.24 -0.97 0.05 -1.26 1.19 -0.14 0.53 -0.32 1.59 -0.42 2.33 -0.08 0.70 -0.07 2.52 0.03 3.54 0.13 1.35 0.47 3.52 0.56 3.62 0.02 0.03 0.27 -0.29 0.97 -1.30 l0.12 -0.17 -0.11 -0.43 c-0.31 -1.25 -0.44 -2.87 -0.35 -4.27 0.03 -0.49 0.07 -0.99 0.09 -1.10 l0.03 -0.21 0.22 0 0.23 0 0.27 0.45 c0.41 0.66 0.95 1.79 1.14 2.38 0.22 0.69 0.37 1.44 0.40 2.03 l0.03 0.49 -0.54 0.80 c-1.63 2.43 -2.58 4.02 -5 8.34 -1.47 2.63 -2.57 4.60 -2.61 4.70 -0.03 0.10 0 0.08 0.96 -0.44 0.48 -0.26 1.34 -0.83 1.83 -1.21 0.63 -0.49 1.35 -1.17 2.76 -2.59 1.93 -1.95 2.56 -2.48 3.98 -3.33 0.34 -0.21 1.03 -0.56 1.29 -0.67 0.18 -0.07 0.43 -0.19 0.57 -0.25 0.14 -0.07 0.33 -0.13 0.42 -0.15 0.09 -0.01 0.19 -0.05 0.22 -0.07 0.12 -0.09 1.53 -0.15 3.18 -0.12 l1.67 0.03 0.21 0.13 c1.08 0.63 2.45 2.10 2.61 2.80 0.09 0.39 0.15 1.38 0.19 3.05 l0.03 1.60 -0.17 0 c-0.16 0 -0.19 -0.03 -0.39 -0.30 -0.49 -0.70 -1.22 -1.54 -1.78 -2.04 -0.47 -0.42 -0.87 -0.67 -1.25 -0.79 -0.78 -0.23 -2.77 -0.26 -4 -0.05 -0.34 0.06 -1.53 0.64 -2.34 1.16 -0.65 0.42 -1.35 0.89 -2.91 2.03 -2.43 1.75 -3.76 2.53 -5.71 3.33 -0.69 0.28 -2.08 0.77 -2.34 0.82 -0.06 0.01 0.10 0.14 0.51 0.41 2.60 1.67 4.62 3.15 6.17 4.51 2.05 1.81 3.36 3.22 5.72 6.14 0.54 0.67 1.19 1.45 1.45 1.73 1.97 2.14 3.99 3.22 6.50 3.47 0.30 0.03 0.61 0.06 0.68 0.07 0.08 0.01 0.90 0.01 1.83 0 1.44 -0.01 1.78 -0.03 2.32 -0.12z"/>
  <path d="M22.58 43.87 c-1.38 -0.22 -2.27 -0.71 -3.47 -1.90 -0.97 -0.96 -1.63 -1.88 -2.22 -3.08 -0.44 -0.91 -0.83 -2.11 -0.83 -2.60 0 -0.24 0.01 -0.28 0.19 -0.42 0.37 -0.33 1.04 -0.74 2.08 -1.28 1.92 -0.98 2.44 -1.45 4.11 -3.64 1.02 -1.33 1.56 -1.92 2.02 -2.16 0.27 -0.14 0.70 -0.12 0.98 0.04 0.37 0.21 1.10 1.03 1.96 2.16 1.67 2.21 2.11 2.60 4.24 3.69 1.03 0.53 1.55 0.86 1.96 1.25 0.17 0.17 0.18 0.43 0.01 1.06 -0.56 2.13 -1.84 4.16 -3.53 5.59 -0.31 0.27 -0.59 0.50 -0.63 0.51 -1.08 0.60 -1.98 0.87 -2.80 0.87 -0.59 0 -0.64 -0.02 -0.64 -0.22 0 -0.14 0.04 -0.19 0.36 -0.43 0.75 -0.56 1.33 -1.24 1.65 -1.91 0.14 -0.30 0.16 -0.39 0.16 -0.75 0 -0.38 -0.01 -0.45 -0.17 -0.76 -0.22 -0.46 -0.70 -0.93 -1.18 -1.17 -0.62 -0.30 -0.88 -0.35 -1.88 -0.34 -0.89 0 -1.50 0.09 -1.78 0.24 -0.12 0.06 -0.22 0.12 -0.49 0.24 -0.24 0.11 -0.72 0.61 -0.89 0.94 -0.38 0.73 -0.31 1.27 0.27 2.14 0.28 0.42 0.95 1.09 1.38 1.40 0.35 0.25 0.37 0.27 0.36 0.43 l-0.01 0.17 -0.42 0.01 c-0.23 0 -0.59 -0.02 -0.81 -0.06z"/>
  <path d="M16.99 30.59 c-0.52 -0.14 -0.85 -0.40 -1.64 -1.29 -0.68 -0.77 -0.68 -0.77 -0.08 -1.44 0.63 -0.71 0.95 -0.98 1.31 -1.16 0.32 -0.15 0.35 -0.16 0.99 -0.16 0.62 0 0.68 0.01 0.95 0.14 0.38 0.18 0.63 0.39 0.97 0.80 0.44 0.54 0.62 0.87 0.62 1.14 0 0.20 -0.03 0.28 -0.30 0.65 -0.36 0.50 -0.71 0.87 -1.02 1.06 -0.49 0.31 -1.21 0.42 -1.81 0.25z"/>
  <path d="M31.69 30.61 c-0.60 -0.12 -1.20 -0.59 -1.70 -1.34 -0.22 -0.34 -0.25 -0.41 -0.25 -0.64 0 -0.59 0.77 -1.58 1.50 -1.93 0.32 -0.15 0.35 -0.16 0.99 -0.16 0.59 0 0.69 0.01 0.90 0.11 0.39 0.18 0.71 0.45 1.29 1.09 0.75 0.83 0.76 0.75 -0.25 1.86 -0.51 0.57 -0.89 0.84 -1.30 0.97 -0.34 0.10 -0.80 0.12 -1.19 0.04z"/>
 </g>
 <g fill="#0d5d96">
  <path d="M24 46.97 c-2.75 -0.09 -4.32 -0.57 -6.09 -1.87 -1.04 -0.77 -1.81 -1.56 -3.32 -3.43 -1.39 -1.72 -2.02 -2.46 -2.97 -3.47 -1.69 -1.81 -3.71 -3.58 -5.67 -4.98 -0.78 -0.55 -2.93 -2 -3.66 -2.46 -0.45 -0.28 -0.48 -0.35 -0.17 -0.42 0.34 -0.07 1.66 -0.53 2.40 -0.83 1.95 -0.79 3.29 -1.57 5.71 -3.33 1.56 -1.13 2.25 -1.61 2.91 -2.03 0.82 -0.51 2 -1.10 2.34 -1.16 0.85 -0.14 2.44 -0.19 3.44 -0.10 0.94 0.09 1.37 0.28 2.10 0.93 0.54 0.48 1.27 1.31 1.75 2 0.10 0.15 0.21 0.29 0.23 0.32 0.06 0.06 0.01 -2.56 -0.07 -3.51 -0.03 -0.38 -0.08 -0.78 -0.12 -0.89 -0.21 -0.71 -1.55 -2.12 -2.58 -2.72 l-0.21 -0.13 -1.53 -0.02 c-1.52 -0.03 -2.92 0.02 -3.04 0.12 -0.03 0.02 -0.13 0.06 -0.22 0.07 -0.09 0.02 -0.27 0.08 -0.42 0.15 -0.14 0.06 -0.40 0.18 -0.57 0.25 -0.27 0.11 -0.96 0.47 -1.29 0.67 -1.43 0.85 -2.06 1.38 -3.98 3.33 -2.48 2.51 -3.23 3.10 -5.42 4.24 -0.39 0.21 -0.73 0.37 -0.75 0.37 -0.04 0 0.15 -0.35 1.18 -2.22 3.60 -6.50 4.91 -8.74 6.76 -11.49 l0.54 -0.80 -0.03 -0.36 c-0.04 -0.51 -0.21 -1.27 -0.40 -1.87 -0.30 -0.92 -1.31 -2.83 -1.49 -2.83 -0.10 0 -0.12 0.12 -0.20 1.25 -0.09 1.33 0.02 2.68 0.35 4.05 l0.16 0.64 -0.14 0.20 c-0.08 0.11 -0.33 0.47 -0.57 0.80 -0.60 0.85 -0.61 0.86 -0.66 0.78 -0.12 -0.19 -0.48 -2.40 -0.62 -3.86 -0.10 -1.04 -0.12 -3.12 -0.03 -3.83 0.18 -1.38 0.45 -2.64 0.69 -3.13 0.17 -0.34 0.33 -0.45 0.69 -0.50 0.30 -0.03 0.61 0.07 1.42 0.48 1.95 0.97 3.69 2.28 5.82 4.38 l1.16 1.14 0.77 -0.21 c2.48 -0.65 4.30 -0.88 6.92 -0.88 2.38 0 4.22 0.25 6.58 0.88 l0.72 0.20 1.02 -1.02 c1.79 -1.80 3.41 -3.09 5.09 -4.05 0.69 -0.40 1.06 -0.58 1.58 -0.78 0.37 -0.14 0.49 -0.17 0.72 -0.15 0.50 0.03 0.66 0.28 0.94 1.43 0.61 2.48 0.61 5.08 -0 8.74 -0.16 0.95 -0.21 1.20 -0.26 1.20 -0.02 0 -0.22 -0.25 -0.44 -0.55 -0.22 -0.30 -0.52 -0.71 -0.67 -0.91 l-0.27 -0.35 0.15 -0.63 c0.27 -1.12 0.40 -2.17 0.40 -3.31 0 -0.77 -0.10 -2 -0.16 -2.06 -0.05 -0.05 -0.19 0.13 -0.55 0.73 -0.54 0.92 -0.92 1.75 -1.14 2.53 -0.11 0.41 -0.30 1.45 -0.30 1.67 0 0.11 0.24 0.51 0.95 1.57 1.37 2.06 2.22 3.48 4.70 7.92 1.69 3.02 2.86 5.16 2.83 5.19 -0.05 0.05 -1.92 -0.98 -2.64 -1.46 -1.02 -0.68 -1.58 -1.19 -3.44 -3.06 -1.48 -1.50 -2.09 -2.05 -2.98 -2.70 -0.93 -0.67 -2.11 -1.31 -3.20 -1.73 -0.37 -0.14 -0.53 -0.18 -1.05 -0.21 -0.74 -0.05 -2.13 -0.06 -3.20 -0.01 l-0.78 0.03 -0.40 0.27 c-1.11 0.76 -2.14 1.90 -2.34 2.62 -0.04 0.13 -0.09 0.63 -0.12 1.10 -0.06 1.10 -0.12 3.27 -0.09 3.27 0.01 0 0.24 -0.29 0.50 -0.65 0.56 -0.75 1.61 -1.84 2.07 -2.13 0.63 -0.40 1.04 -0.48 2.62 -0.53 1 -0.03 1.96 0.02 2.47 0.14 0.28 0.06 0.95 0.38 1.64 0.78 0.76 0.43 1.71 1.06 3.19 2.13 1.87 1.34 2.17 1.54 3.02 2.06 1.42 0.86 2.92 1.53 4.79 2.15 0.52 0.17 0.96 0.32 0.97 0.33 0.02 0.02 -0.41 0.32 -0.45 0.32 -0.03 0 -2.43 1.56 -2.61 1.70 -0.09 0.07 -0.26 0.19 -0.37 0.26 -0.38 0.24 -1.71 1.24 -2.39 1.78 -2.51 2.01 -4.32 3.85 -6.74 6.86 -1.22 1.51 -1.72 2.08 -2.39 2.73 -0.48 0.46 -1.65 1.42 -1.74 1.42 -0.01 0 -0.18 0.09 -0.36 0.21 -0.79 0.48 -1.59 0.81 -2.31 0.95 -0.83 0.16 -1.68 0.27 -2.34 0.29 -0.39 0.01 -0.84 0.03 -1 0.04 -0.16 0.01 -0.75 0 -1.32 -0.02z m-0.35 -3.21 c0.01 -0.02 -0.14 -0.16 -0.34 -0.30 -0.20 -0.14 -0.54 -0.45 -0.77 -0.68 -1.13 -1.18 -1.41 -2.14 -0.88 -3.14 0.18 -0.33 0.65 -0.83 0.89 -0.94 0.26 -0.12 0.37 -0.18 0.49 -0.24 0.30 -0.16 0.88 -0.23 1.93 -0.24 0.83 -0 1.08 0.01 1.34 0.08 1.36 0.37 2.24 1.49 2.06 2.63 -0.13 0.80 -0.83 1.75 -1.85 2.51 -0.42 0.32 -0.41 0.35 0.12 0.36 0.69 0.01 1.66 -0.31 2.68 -0.87 0.03 -0.01 0.31 -0.24 0.63 -0.51 1.52 -1.28 2.69 -3.02 3.32 -4.92 0.24 -0.73 0.34 -1.17 0.30 -1.30 -0.02 -0.05 -0.23 -0.24 -0.48 -0.44 -0.34 -0.26 -0.72 -0.49 -1.56 -0.92 -2.15 -1.10 -2.60 -1.49 -4.28 -3.71 -0.85 -1.12 -1.60 -1.95 -1.95 -2.16 -0.61 -0.36 -1.15 0.07 -2.71 2.12 -1.67 2.19 -2.19 2.66 -4.11 3.64 -1.46 0.75 -2.27 1.30 -2.27 1.56 0 0.17 0.21 0.92 0.41 1.48 0.55 1.50 1.43 2.86 2.64 4.06 1.20 1.20 2.09 1.68 3.47 1.90 0.46 0.07 0.89 0.09 0.92 0.03z m-5.53 -13.34 c0.39 -0.12 0.68 -0.30 1 -0.63 0.30 -0.31 0.85 -1.06 0.85 -1.18 0 -0.21 -0.71 -1.18 -1.10 -1.50 -0.11 -0.09 -0.33 -0.22 -0.49 -0.30 -0.26 -0.12 -0.34 -0.14 -0.80 -0.14 -0.47 0 -0.54 0.01 -0.84 0.16 -0.18 0.09 -0.45 0.27 -0.61 0.42 -0.33 0.31 -1.14 1.21 -1.14 1.27 0 0.06 1 1.18 1.26 1.41 0.31 0.27 0.57 0.42 0.89 0.51 0.37 0.10 0.62 0.09 0.98 -0.02z m14.60 0 c0.17 -0.05 0.43 -0.19 0.59 -0.29 0.24 -0.18 1.09 -1.06 1.39 -1.46 l0.12 -0.16 -0.19 -0.23 c-0.11 -0.13 -0.42 -0.46 -0.70 -0.75 -0.41 -0.41 -0.59 -0.55 -0.85 -0.68 -0.32 -0.16 -0.37 -0.17 -0.85 -0.17 -0.47 0 -0.54 0.01 -0.84 0.16 -0.18 0.09 -0.45 0.27 -0.60 0.42 -0.44 0.42 -0.90 1.11 -0.90 1.37 0 0.06 0.11 0.29 0.25 0.50 0.75 1.12 1.67 1.59 2.59 1.30z"/>
 </g>
</svg>